<svg xmlns="http://www.w3.org/2000/svg" viewBox="0 0 900 1500"><defs><style>.cls-1{fill:#ed1c24;}.cls-2{fill:#fff200;}.cls-3{fill:#2e3192;}.cls-4{fill:none;}</style></defs><title>circles</title><g id="Layer_2" data-name="Layer 2"><g id="Layer_1-2" data-name="Layer 1"><path class="cls-1" d="M618.72,918.72c0-186.35-151.08-337.42-337.43-337.43C281.3,767.64,432.36,918.7,618.72,918.72Z"/><path class="cls-2" d="M900,394.77c-60.45-91-163.84-151-281.26-151-186.37,0-337.45,151.08-337.45,337.45v0c186.35,0,337.42,151.08,337.43,337.43h0c117.42,0,220.81-60,281.26-151Z"/><path class="cls-3" d="M281.28,581.28h0c-117.42,0-220.81,60-281.26,151v373c60.45,91,163.84,151,281.26,151,186.37,0,337.45-151.08,337.45-337.45v0C432.36,918.7,281.3,767.64,281.28,581.28Z"/><rect class="cls-4" width="900" height="1500"/></g></g></svg>
